<?xml version="1.0" encoding="UTF-8"?>
<svg xmlns="http://www.w3.org/2000/svg" xmlns:xlink="http://www.w3.org/1999/xlink" width="55.674" height="78.9" viewBox="0 0 55.674 78.9">
<defs>
<clipPath id="clip-0">
<path clip-rule="nonzero" d="M 0 0 L 55.675781 0 L 55.675781 78.898438 L 0 78.898438 Z M 0 0 "/>
</clipPath>
</defs>
<path fill-rule="nonzero" fill="rgb(39.99939%, 39.99939%, 39.99939%)" fill-opacity="1" d="M 30.421875 2.835938 L 25.25 2.835938 C 25.113281 2.835938 25.003906 2.945312 25.003906 3.082031 L 25.003906 4.578125 C 25.003906 4.714844 25.113281 4.828125 25.25 4.828125 L 30.421875 4.828125 C 30.558594 4.828125 30.671875 4.714844 30.671875 4.578125 L 30.671875 3.082031 C 30.671875 2.945312 30.558594 2.835938 30.421875 2.835938 Z M 30.421875 2.835938 "/>
<path fill-rule="nonzero" fill="rgb(100%, 100%, 100%)" fill-opacity="1" d="M 3.035156 74.871094 L 3.035156 4.578125 C 3.035156 4.027344 3.480469 3.582031 4.03125 3.582031 L 51.644531 3.582031 C 52.195312 3.582031 52.640625 4.027344 52.640625 4.578125 L 52.640625 74.871094 C 52.640625 75.421875 52.195312 75.867188 51.644531 75.867188 L 4.03125 75.867188 C 3.480469 75.867188 3.035156 75.421875 3.035156 74.871094 Z M 3.035156 74.871094 "/>
<g clip-path="url(#clip-0)">
<path fill="none" stroke-width="0.3985" stroke-linecap="butt" stroke-linejoin="miter" stroke="rgb(39.99939%, 39.99939%, 39.99939%)" stroke-opacity="1" stroke-miterlimit="10" d="M -63.778844 0.994906 L -63.778844 71.287875 C -63.778844 71.838656 -63.333531 72.283969 -62.78275 72.283969 L -15.169469 72.283969 C -14.618688 72.283969 -14.173375 71.838656 -14.173375 71.287875 L -14.173375 0.994906 C -14.173375 0.444125 -14.618688 -0.0011875 -15.169469 -0.0011875 L -62.78275 -0.0011875 C -63.333531 -0.0011875 -63.778844 0.444125 -63.778844 0.994906 Z M -63.778844 0.994906 " transform="matrix(1, 0, 0, -1, 66.814, 75.866)"/>
</g>
<path fill-rule="nonzero" fill="rgb(93.998718%, 93.998718%, 93.998718%)" fill-opacity="1" d="M 5.867188 64.527344 L 5.867188 9.25 L 49.804688 9.25 L 49.804688 64.527344 Z M 5.867188 64.527344 "/>
<path fill-rule="nonzero" fill="rgb(100%, 100%, 100%)" fill-opacity="1" stroke-width="0.29887" stroke-linecap="butt" stroke-linejoin="miter" stroke="rgb(39.99939%, 39.99939%, 39.99939%)" stroke-opacity="1" stroke-miterlimit="10" d="M -55.524938 8.502719 L -60.696813 8.502719 C -60.833531 8.502719 -60.946813 8.393344 -60.946813 8.256625 L -60.946813 3.08475 C -60.946813 2.948031 -60.833531 2.83475 -60.696813 2.83475 L -55.524938 2.83475 C -55.388219 2.83475 -55.274938 2.948031 -55.274938 3.08475 L -55.274938 8.256625 C -55.274938 8.393344 -55.388219 8.502719 -55.524938 8.502719 Z M -55.524938 8.502719 " transform="matrix(1, 0, 0, -1, 66.814, 75.866)"/>
<path fill-rule="nonzero" fill="rgb(100%, 100%, 100%)" fill-opacity="1" stroke-width="0.29887" stroke-linecap="butt" stroke-linejoin="miter" stroke="rgb(39.99939%, 39.99939%, 39.99939%)" stroke-opacity="1" stroke-miterlimit="10" d="M -36.392125 8.502719 L -41.564 8.502719 C -41.700719 8.502719 -41.810094 8.393344 -41.810094 8.256625 L -41.810094 3.08475 C -41.810094 2.948031 -41.700719 2.83475 -41.564 2.83475 L -36.392125 2.83475 C -36.255406 2.83475 -36.142125 2.948031 -36.142125 3.08475 L -36.142125 8.256625 C -36.142125 8.393344 -36.255406 8.502719 -36.392125 8.502719 Z M -36.392125 8.502719 " transform="matrix(1, 0, 0, -1, 66.814, 75.866)"/>
<path fill-rule="nonzero" fill="rgb(100%, 100%, 100%)" fill-opacity="1" stroke-width="0.29887" stroke-linecap="butt" stroke-linejoin="miter" stroke="rgb(39.99939%, 39.99939%, 39.99939%)" stroke-opacity="1" stroke-miterlimit="10" d="M -17.255406 8.502719 L -22.427281 8.502719 C -22.567906 8.502719 -22.677281 8.393344 -22.677281 8.256625 L -22.677281 3.08475 C -22.677281 2.948031 -22.567906 2.83475 -22.427281 2.83475 L -17.255406 2.83475 C -17.118688 2.83475 -17.009313 2.948031 -17.009313 3.08475 L -17.009313 8.256625 C -17.009313 8.393344 -17.118688 8.502719 -17.255406 8.502719 Z M -17.255406 8.502719 " transform="matrix(1, 0, 0, -1, 66.814, 75.866)"/>
</svg>
